<svg width="108" height="119" viewBox="0 0 108 119" fill="none" xmlns="http://www.w3.org/2000/svg">
<path d="M66.2067 1.0397C60.5709 2.8811 55.2141 8.1263 52.8705 14.0411C51.5871 17.2775 51.3081 18.8957 51.0291 25.5917L50.6943 33.3479L41.7105 33.1247C32.7825 32.9015 32.7267 32.9015 29.2671 31.0601C26.5329 29.6093 24.1893 27.4331 17.6607 20.3465C9.12328 11.0837 8.00728 10.3025 6.05428 12.4787C5.21728 13.4273 5.10568 15.7709 5.10568 34.4081C5.10568 53.3801 5.21728 55.7237 6.22168 60.0203C7.56088 65.6003 11.2437 73.3007 15.0939 78.4901C17.9955 82.3961 25.2495 88.5899 29.3787 90.6545L31.8897 91.8821V101.926V111.914H27.9837C24.8031 111.914 23.8545 112.138 22.9617 113.03C21.5667 114.425 21.5667 115.876 22.9059 117.55L23.9661 118.889H54.1539C87.3549 118.889 86.1831 119.001 86.1831 115.486C86.1831 112.584 84.4533 111.914 77.3109 111.914C73.7955 111.914 70.9497 111.691 70.9497 111.412C70.9497 111.133 71.7867 110.352 72.8469 109.738C75.6927 107.953 76.2507 105.497 74.2977 103.544C72.7911 102.038 70.1127 102.149 67.2111 103.823L64.8117 105.163V98.9129L64.8675 92.6633L68.5503 90.9893C78.8175 86.4137 85.5693 78.9365 89.4195 67.8323C90.5355 64.4843 90.6471 62.9777 90.9261 48.1907L91.1493 32.1761L93.4929 30.7811C94.7205 30.0557 97.2315 28.6607 99.0171 27.7121C103.704 25.2011 106.662 23.2481 106.662 22.6901C106.662 21.9647 105.713 21.3509 100.803 18.7283C98.3475 17.4449 95.1111 15.7151 93.6603 14.9339C91.9305 13.9853 90.7029 12.8693 90.2565 11.8091C88.6941 8.1263 84.9555 4.3319 81.1053 2.4347C77.9805 0.872302 76.6971 0.593302 72.9027 0.481702C70.3917 0.370102 67.4901 0.649102 66.2067 1.0397ZM77.0319 8.9075C79.1523 10.0235 81.5517 12.5903 82.6119 14.8223C83.3931 16.5521 83.5047 19.5653 83.3373 39.3743C83.1141 64.4843 83.0583 65.1539 79.4871 71.0129C73.8513 80.2757 65.8719 85.5209 54.8793 87.1391C43.7751 88.8131 32.5593 85.1861 24.4683 77.3741C22.1247 75.1421 16.8237 67.6091 16.8237 66.5489C16.8237 66.3257 17.5491 66.1583 18.4977 66.1583C21.9573 66.1583 22.9617 61.1921 19.7811 59.9645C18.9441 59.6297 17.3817 59.4623 16.3215 59.5739C14.6475 59.6855 14.3127 59.5181 13.9779 58.3463C13.7547 57.5651 13.5873 56.1143 13.5315 55.1099C13.4757 53.4917 13.6431 53.3243 15.1497 53.3243C16.3773 53.3243 16.9911 52.9337 17.6049 51.7619C18.9441 49.1393 17.1027 46.6283 13.8105 46.6283H12.3597V36.4727V26.3171L17.2701 31.1159C23.4639 37.1981 25.5843 38.5373 30.9969 39.9323C34.7355 40.8809 37.1907 41.0483 46.7883 41.0483C57.3903 41.0483 58.1715 40.9925 59.2317 39.9323C60.5709 38.5931 60.7383 35.3567 59.4549 34.2965C58.6737 33.6269 58.5621 32.5109 58.8411 26.2613C59.1201 18.0587 59.8455 15.7709 63.0261 12.4229C67.3227 7.9031 72.5679 6.6197 77.0319 8.9075ZM49.8015 95.2859C51.8661 95.2859 54.3771 95.1185 55.3257 94.8953L56.9997 94.5047V103.21V111.914H51.1407C47.9043 111.914 45.2817 111.747 45.2817 111.524C45.2817 111.356 46.2861 110.352 47.5137 109.292C50.0247 107.116 50.3595 105.497 48.6297 103.656C47.0673 101.982 44.3889 102.094 41.7663 103.823L39.7017 105.274V99.8615V94.5047L42.8265 94.8953C44.5563 95.1185 47.6811 95.2859 49.8015 95.2859Z" fill="black"/>
<path d="M71.7909 17.3343C70.8981 18.1713 70.3959 19.3431 70.3959 20.4033C70.3959 22.5237 72.5721 24.8673 74.5809 24.8673C76.4223 24.8673 78.7659 22.5237 78.7659 20.6823C78.7659 18.8967 75.9759 15.9393 74.3019 15.9393C73.6881 15.9393 72.5163 16.5531 71.7909 17.3343Z" fill="black"/>
<path d="M37.7507 54.5552C36.0209 55.5038 35.7977 56.1176 35.7977 59.7446C35.7977 63.7064 37.0811 66.7754 40.0385 70.0118C44.1119 74.5874 49.4687 76.5404 56.1647 76.0382C62.6933 75.536 68.0501 72.6344 70.6727 68.1146C72.4025 65.1572 72.4025 63.7064 70.6727 61.9766C68.6639 59.912 67.4921 60.2468 64.5905 63.6506C62.3585 66.2174 61.4099 66.887 58.8431 67.6124C53.0399 69.2864 47.0135 67.6124 44.3351 63.5948C43.8329 62.7578 43.2191 60.6374 42.9959 58.796C42.4937 54.3878 40.6523 52.937 37.7507 54.5552Z" fill="black"/>
<path d="M32.6165 3.49515C32.2259 3.60675 31.8911 4.61115 31.8911 5.61555C31.8911 7.28955 31.7237 7.45695 29.8823 7.79175C27.9293 8.18235 27.9293 8.18235 28.0967 10.805C28.2641 13.316 28.3199 13.4276 30.1055 13.595C31.7237 13.7624 31.8911 13.9298 31.8911 15.6038C31.8911 17.8358 32.7281 18.7286 34.8485 18.7286C36.9131 18.7286 38.0291 17.2778 37.6385 15.2132C37.3595 13.8182 37.4711 13.7066 39.3683 13.7066C41.0423 13.7066 41.4329 13.4834 41.7119 12.2558C41.9351 11.4188 41.8793 10.0796 41.5445 9.29835C41.1539 8.07075 40.7633 7.84755 39.2567 8.01495C37.5269 8.12655 37.4711 8.07075 37.4711 5.95035C37.4711 4.49955 37.1921 3.66255 36.5783 3.43935C35.5739 3.04875 33.6209 3.04875 32.6165 3.49515Z" fill="black"/>
<path d="M102.427 57.4013C100.697 58.3499 100.53 58.9079 100.53 64.3205C100.53 68.8961 100.418 69.5099 99.5809 69.5099C97.0141 69.5657 94.7821 73.1369 95.5633 75.8153C96.2329 78.2705 97.9627 79.5539 100.641 79.5539C102.483 79.5539 103.264 79.1633 105.049 77.3777L107.226 75.2015V67.1663C107.226 60.1355 107.114 58.9637 106.277 58.2383C104.77 56.9549 103.654 56.7317 102.427 57.4013Z" fill="black"/>
<path d="M2.87346 90.1021C2.59446 90.7159 2.31546 91.8319 2.31546 92.5573C2.31546 93.2827 1.81326 94.3429 1.19946 94.9009C-0.139744 96.1285 -0.251344 98.1373 0.976256 99.3091C2.03646 100.425 2.48286 100.425 4.65906 99.3091C5.66346 98.8069 7.00266 98.5279 7.89546 98.7511C9.06726 98.9743 9.73686 98.6953 10.9087 97.4677C13.4755 94.7893 12.8617 93.3943 7.83966 90.4927C4.77066 88.7629 3.65466 88.6513 2.87346 90.1021Z" fill="black"/>
<path d="M5.44038 113.316C3.76638 114.879 3.65478 115.66 4.88238 117.39C5.66358 118.506 6.22158 118.617 10.6298 118.617C16.0424 118.617 16.8236 118.227 16.8236 115.493C16.8236 112.87 15.2054 111.921 10.6298 111.921C7.50498 111.921 6.72378 112.145 5.44038 113.316Z" fill="black"/>
</svg>
