<svg width="136" height="117" viewBox="0 0 136 117" fill="none" xmlns="http://www.w3.org/2000/svg">
<path d="M100.495 1.07736C98.5982 2.36076 98.2634 2.91876 98.2634 4.98336C98.2634 6.54576 99.8816 8.94516 100.998 9.11256C101.165 9.11256 101.89 9.22416 102.56 9.39156C104.401 9.72636 107.191 7.10376 107.191 5.03916C107.191 2.69556 106.354 1.46796 104.346 0.742555C102.058 -0.0386449 102.114 -0.0386449 100.495 1.07736Z" fill="black"/>
<path d="M42.5691 1.2448C41.8995 1.5238 41.0625 2.4166 40.6719 3.1978C40.1139 4.4812 40.2255 5.095 41.7879 7.885C43.1829 10.4518 43.5735 11.791 43.5735 14.2462C43.5735 18.6544 41.3415 21.4444 35.7615 24.1786C28.6191 27.6382 24.2109 32.4928 21.7557 39.5236C20.5281 43.0948 20.1375 48.34 20.8629 51.4648C21.3093 53.362 21.2535 53.4736 18.2961 55.2034C9.53552 60.4486 3.84392 71.6644 5.51792 80.4808C7.24772 89.7436 12.8277 96.4954 21.7557 99.955L25.4385 101.406L62.6013 101.573C103.67 101.741 103.67 101.741 110.98 98.2252C119.741 94.0402 125.042 84.7774 124.149 74.9008C123.368 65.5822 119.238 58.9978 111.259 54.3664L107.799 52.4134L108.134 49.735C108.525 46.2754 107.018 39.6352 105.009 36.1198C102.722 32.1022 98.5923 28.3078 93.9609 25.9642C90.3339 24.067 89.9433 23.7322 89.6643 21.835C88.8273 16.534 84.5865 10.6192 79.5645 7.6618C75.8817 5.5414 68.7393 3.0862 63.2709 2.0818C57.3003 1.0216 44.3547 0.463603 42.5691 1.2448ZM59.9787 9.3916C73.8171 11.791 80.8479 16.3108 81.4059 23.1742C82.2429 33.553 66.3399 44.9362 44.0199 50.014C42.1227 50.4604 40.2255 52.4134 40.2255 53.9758C40.2255 56.0404 42.2343 57.3238 45.2475 57.268C48.7071 57.1564 59.5881 53.6968 66.1725 50.6278C75.7143 46.2196 83.6937 39.7468 86.5953 34.111C87.8787 31.5442 88.6041 31.4326 91.6731 33.3856C96.8067 36.622 100.043 41.8672 100.043 47.0008C100.099 49.5676 99.7083 51.0184 97.9785 54.5896C96.2487 58.1608 94.8537 59.9464 90.2223 64.5778C87.0975 67.6468 82.9683 71.3854 80.9595 72.9478C78.9507 74.4544 77.2209 75.8494 77.0535 76.0168C76.3839 76.798 65.3913 83.6056 61.2621 85.7818C50.8275 91.306 42.7923 93.538 33.2505 93.538C23.3739 93.538 18.4077 90.9154 15.0039 83.9404C13.4973 80.8714 13.1625 79.6438 13.2183 76.798C13.3857 69.7114 17.6823 63.964 25.5501 60.337C28.5075 58.942 30.2373 57.826 30.4605 57.0448C30.6837 56.431 30.2931 54.3106 29.5677 52.1902C28.6191 49.2886 28.4517 47.782 28.6749 45.0478C29.2887 38.6308 32.3019 34.8922 40.2813 30.8188C46.0287 27.8614 48.0933 25.9642 49.8789 21.9466C50.9949 19.3798 51.4413 12.8512 50.6601 10.0054C50.2695 8.5546 50.3253 8.4988 52.6131 8.4988C53.9523 8.4988 57.2445 8.8894 59.9787 9.3916ZM107.074 60.895C110.143 62.4574 113.268 65.8612 114.942 69.3208C116.895 73.5058 117.006 79.5322 115.109 83.3824C112.542 88.6276 108.078 91.9198 101.717 93.259C99.8757 93.6496 91.9521 93.8728 80.5131 93.8728H62.2665L68.4045 90.6364C81.5733 83.6614 95.5233 72.334 102.331 63.0154C103.614 61.2856 104.73 59.8348 104.842 59.8348C104.898 59.8348 105.902 60.337 107.074 60.895Z" fill="black"/>
<path d="M106.187 70.5528C105.797 70.9434 105.518 72.9522 105.518 75.519C105.518 79.4808 105.629 79.9272 106.969 80.9874C108.643 82.3266 110.428 81.8802 111.544 79.8714C112.437 78.2532 112.102 71.9478 111.098 70.7202C110.261 69.7158 107.136 69.6042 106.187 70.5528Z" fill="black"/>
<path d="M6.29875 4.92778C5.07115 5.76478 5.07115 5.98798 5.07115 18.5988V31.4328L3.39715 32.0466C0.160747 33.1626 -0.899452 37.4592 1.38835 40.1376C2.56015 41.4768 3.17395 41.7 5.57335 41.7C7.91695 41.7 8.64235 41.421 9.92575 40.1376L11.4881 38.631L11.7671 28.7544L12.0461 18.9336L13.6085 21.1656C15.0035 23.1744 15.1709 23.7882 14.8361 25.9086C14.5013 28.029 14.6687 28.4754 15.8405 29.5914C18.4073 31.9908 21.1415 29.5356 21.5321 24.5694C21.7553 21.1098 20.8067 18.9894 16.6775 13.6884C14.5571 11.01 12.3251 7.94098 11.6555 6.93658C10.5953 5.26258 9.08875 4.03498 8.02855 4.03498C7.74955 4.03498 6.96835 4.42558 6.29875 4.92778Z" fill="black"/>
<path d="M119.58 5.26257C119.078 5.76477 118.91 9.50337 118.91 18.6546C118.91 31.377 118.91 31.4328 117.683 31.8792C114.893 32.9394 113.386 36.0642 114.446 38.5752C115.897 42.1464 121.533 42.9276 123.932 39.9144C124.937 38.631 125.048 37.6266 125.048 28.6428L125.104 18.822L126.778 20.775C128.173 22.3932 128.452 23.1186 128.341 25.239C128.006 30.0936 129.847 31.935 132.749 29.703C134.479 28.308 134.981 27.0804 135.037 23.565C135.092 20.6076 134.59 19.659 128.062 10.8984C124.044 5.54157 123.095 4.59297 121.756 4.59297C120.919 4.59297 119.971 4.87197 119.58 5.26257Z" fill="black"/>
<path d="M71.1979 110.062L60.5959 110.341L59.8705 111.903C59.2009 113.242 59.2567 113.633 59.9821 114.861C60.8749 116.2 61.0423 116.2 69.4123 116.311C82.4695 116.479 83.5855 116.479 84.5341 115.698C85.4827 114.916 85.7059 112.461 84.9805 111.401C84.5899 110.787 82.3021 109.392 81.9673 109.615C81.8557 109.671 77.0569 109.894 71.1979 110.062Z" fill="black"/>
<path d="M27.7277 110.955C26.6675 112.015 26.5559 114.749 27.5603 115.474C28.3415 116.144 50.3825 116.814 52.5029 116.256C53.2841 116.032 54.2327 115.195 54.6791 114.414C55.4045 113.131 55.4045 112.796 54.5675 111.513L53.6189 110.062H41.0639C30.4619 110.062 28.4531 110.173 27.7277 110.955Z" fill="black"/>
</svg>
