<svg width="136" height="133" viewBox="0 0 136 133" fill="none" xmlns="http://www.w3.org/2000/svg">
<path d="M53.2904 0.764828C51.9512 1.09963 48.659 3.49903 47.3198 5.11723C45.869 6.84703 44.9204 11.9248 45.6458 14.5474C46.148 16.4446 46.0922 16.7236 45.1436 16.9468C44.2508 17.17 44.0834 17.7838 44.0834 20.239V23.1964L30.8588 23.3638L17.5784 23.5312L14.063 25.1494C9.82221 27.1024 6.64161 30.4504 4.96761 34.9144C3.74001 37.9834 3.74001 38.4298 3.68421 72.9142L3.62841 107.789L2.12181 109.296C0.280413 111.081 0.113013 113.202 1.67541 114.764C2.62401 115.713 3.51681 115.88 8.37141 115.88C12.4448 115.88 13.9514 116.048 13.9514 116.55C13.9514 117.945 16.6298 122.855 18.3038 124.641L20.0336 126.482H15.6254C11.552 126.482 11.1614 126.594 10.1012 127.933C8.65041 129.774 8.65041 130.5 9.93381 131.672C10.7708 132.453 13.6724 132.564 34.0394 132.676C55.634 132.732 57.1964 132.676 57.866 131.727C58.9262 130.332 58.7588 128.882 57.4754 127.598C56.5268 126.65 55.634 126.482 51.6164 126.482H46.8734L48.7148 124.083C49.7192 122.744 51.1142 120.4 51.7838 118.782L53.0672 115.88H67.1288C81.6926 115.88 82.5854 115.992 82.5854 118.168C82.5854 118.726 83.7014 120.791 85.0406 122.799L87.4958 126.482H83.1992C78.1772 126.482 76.4474 127.319 76.4474 129.774C76.4474 132.788 76.3358 132.788 100.832 132.899C122.036 132.955 123.598 132.899 124.547 131.951C125.775 130.723 125.83 129.328 124.659 127.71C123.933 126.594 123.319 126.482 119.358 126.482C116.958 126.482 114.949 126.371 114.949 126.203C114.949 126.036 115.452 125.366 116.01 124.697C117.126 123.581 119.637 118.782 120.195 116.829C120.474 115.992 121.255 115.88 126.946 115.88C132.75 115.88 133.475 115.769 134.535 114.708C135.428 113.816 135.651 113.09 135.372 111.751C135.037 109.965 133.084 107.845 132.247 108.347C131.968 108.515 131.689 101.093 131.578 91.8304L131.41 75.0346L129.736 73.6954C128.844 72.97 127.783 72.3562 127.449 72.3562C127.17 72.3562 125.719 71.6308 124.268 70.6822L121.645 69.0082V56.1742V43.2844L123.654 43.4518C127.225 43.675 128.899 39.8248 126.388 37.258C125.998 36.8674 124.547 36.421 123.208 36.2536C120.976 35.9746 120.697 35.8072 119.804 33.5752C119.246 32.236 117.46 29.9482 115.898 28.3858C111.936 24.703 108.03 23.2522 101.892 23.2522H97.205L96.9818 19.96C96.3122 10.195 84.0362 5.73103 76.838 12.5386C74.4386 14.7706 73.6574 16.7236 73.6574 20.1832C73.6574 23.1964 73.6574 23.2522 71.9834 23.2522C70.3094 23.2522 70.3094 23.1964 70.3094 20.1832C70.3094 17.5048 70.142 17.1142 69.2492 17.1142C68.2448 17.1142 68.189 16.7794 68.4122 13.0408C68.6354 9.58123 68.5238 8.68843 67.352 6.51223C65.399 2.77363 62.33 0.876428 57.9776 0.653228C56.0246 0.541628 53.9042 0.597428 53.2904 0.764828ZM59.9864 9.02323C63.446 12.427 59.9306 17.6722 55.4108 15.9424C53.96 15.3844 52.3976 12.3712 52.8998 11.032C54.0158 7.68403 57.6428 6.62383 59.9864 9.02323ZM87.6632 17.7838C89.3372 19.6252 89.951 21.4666 89.2256 22.75C88.7234 23.6986 88.1654 23.866 84.929 23.6986L81.1904 23.5312L81.023 21.4666C80.6882 17.449 85.0406 15.0496 87.6632 17.7838ZM108.253 32.3476C109.593 33.0172 111.043 34.189 111.49 34.8586L112.271 36.0862H99.9392C88.3328 36.0862 87.5516 36.142 86.4914 37.2022C85.4312 38.2624 85.3754 39.0436 85.3754 54.7792V71.2402H48.2126H11.1056L11.273 55.1698L11.4404 39.0436L13.1144 36.3094C14.1188 34.747 15.737 33.073 17.0204 32.3476L19.2524 31.0642H62.5532H105.854L108.253 32.3476ZM114.057 50.9848C114.224 55.2256 114.391 61.3636 114.391 64.6558L114.336 70.6822H103.455H92.6294V57.4018C92.6294 50.092 92.7968 43.8982 93.02 43.7308C93.1874 43.5076 97.9304 43.3402 103.51 43.3402H113.666L114.057 50.9848ZM121.645 80.503C120.753 81.5632 117.684 85.0228 114.894 88.2592L109.816 94.1182H106.691H103.566L104.961 92.5558C105.742 91.7188 108.309 88.7614 110.709 86.0272C117.572 78.1594 117.628 78.1594 120.697 78.3826L123.319 78.6058L121.645 80.503ZM105.073 82.8466C103.008 85.1902 99.8834 88.7056 98.2094 90.6586C96.1448 93.058 94.7498 94.1182 93.857 94.1182C92.6852 94.1182 92.5736 93.9508 92.8526 91.6072C93.1316 89.431 93.8012 88.3708 97.763 83.7952L102.394 78.4942H105.631H108.923L105.073 82.8466ZM85.3754 87.1432V95.2342H83.1434C79.4048 95.2342 77.396 98.4706 79.628 100.926C80.2418 101.595 81.302 101.93 82.976 101.93H85.3754V105.278V108.626L48.4358 108.515L11.4404 108.347L11.273 93.6718L11.1614 79.0522H48.2684H85.3754V87.1432ZM123.319 104.999V108.626H108.253H93.1874V104.999V101.372H108.253H123.319V104.999ZM44.0834 116.494C44.0834 117.498 41.9072 120.233 39.8984 121.739C37.3874 123.692 32.8676 124.362 29.5754 123.302C26.7854 122.409 25.4462 121.46 23.549 119.005C21.1496 115.936 21.317 115.88 33.2024 115.88C40.7354 115.88 44.0834 116.048 44.0834 116.494ZM112.159 116.717C112.159 117.164 111.378 118.391 110.374 119.507C105.352 125.31 97.205 125.31 92.183 119.507C89.0024 115.936 89.0582 115.88 101.278 115.88C110.485 115.88 112.159 115.992 112.159 116.717Z" fill="black"/>
<path d="M18.9746 37.2045C17.9144 38.2647 17.8586 39.0459 17.8586 51.6567C17.8586 61.7007 18.026 65.1045 18.584 65.5509C19.6442 66.4437 36.1052 66.6111 36.998 65.7183C37.5002 65.2161 37.7234 61.3659 37.835 51.8799C38.0582 35.0283 38.7278 36.0885 27.791 36.0885C20.816 36.0885 19.979 36.2001 18.9746 37.2045Z" fill="black"/>
<path d="M45.0349 37.0929C44.1979 37.9857 44.0863 39.8271 44.0863 50.9871C44.0863 63.1515 44.1421 63.9327 45.2581 65.3277C46.5973 67.0575 49.0525 67.2807 50.3917 65.7741C51.2287 64.8813 51.3403 63.0399 51.3403 51.3219C51.3403 39.0459 51.2287 37.8741 50.3359 37.0371C48.9409 35.8095 46.1509 35.8653 45.0349 37.0929Z" fill="black"/>
<path d="M59.1532 37.2046C58.093 38.2648 58.0372 39.046 58.0372 51.3778V64.4908L59.488 65.6068C60.8272 66.667 61.72 66.7786 68.6392 66.7786C75.3352 66.7786 76.3954 66.667 77.1766 65.7742C78.0136 64.8814 78.1252 63.04 78.1252 51.5452C78.1252 34.861 78.9064 36.0886 68.0812 36.0886C60.9946 36.0886 60.1576 36.2002 59.1532 37.2046Z" fill="black"/>
<path d="M19.6443 85.363C18.1377 86.9812 18.0819 88.5436 19.5327 90.106C20.7045 91.3336 20.7045 91.3336 45.7029 91.3336C69.8643 91.3336 70.7571 91.2778 71.7057 90.2176C73.0449 88.711 72.9333 86.3116 71.4267 85.084C70.2549 84.1354 68.4693 84.0796 45.5355 84.0796H20.8161L19.6443 85.363Z" fill="black"/>
<path d="M19.8674 97.5282C18.1376 98.9232 17.9702 100.932 19.5326 102.494C20.5928 103.555 21.374 103.61 45.4238 103.61C72.431 103.61 71.5382 103.722 72.3194 100.486C72.5984 99.4812 72.3194 98.7 71.3708 97.6956L70.1432 96.3564H45.7586C21.932 96.3564 21.3182 96.3564 19.8674 97.5282Z" fill="black"/>
</svg>
