<svg width="139" height="115" viewBox="0 0 139 115" fill="none" xmlns="http://www.w3.org/2000/svg">
<path d="M45.8118 0.580796C42.2406 1.5852 38.1672 5.6586 38.6136 7.8348C38.7252 8.2812 37.8324 8.616 36.1584 8.8392C29.295 9.6762 26.0028 17.1534 29.6856 23.3472L31.1364 25.8024L26.7282 27.9228C19.0278 31.6614 13.671 37.7994 10.9368 45.9462L9.7092 49.6848L5.9148 51.2472C1.4508 53.1444 0 54.3162 0 55.9902C0 57.6084 1.116 58.5012 5.9148 60.9006L9.8766 62.9094L10.1556 66.1458C11.3274 79.0914 21.6504 91.2 34.3728 94.4922C36.1584 94.9386 39.7296 95.3292 42.2406 95.3292H46.872V101.467V107.605H41.1246C36.2142 107.605 35.2098 107.773 34.4286 108.61C33.2568 109.893 33.201 112.069 34.2612 113.52C35.0424 114.524 36.0468 114.58 68.076 114.58C100.105 114.58 101.11 114.524 101.891 113.52C103.007 111.902 102.839 110.228 101.389 108.833C100.328 107.828 99.3798 107.605 94.581 107.494L89.001 107.326L88.8336 101.411L88.6662 95.4408L92.4606 95.0502C96.7014 94.6038 103.118 92.1486 106.522 89.7492C111.823 85.899 116.287 77.5848 116.957 70.275C117.292 66.7596 117.459 66.3132 118.519 66.3132C125.996 66.1458 129.679 63.021 129.735 56.7714C129.735 54.0372 129.456 53.2002 127.949 51.024L126.164 48.513L127.949 48.1224C136.487 46.281 140.504 38.9712 137.101 31.5498C135.65 28.3692 132.358 25.356 129.623 24.6864C128.228 24.2958 127.949 23.6262 128.954 23.0124C129.289 22.845 130.07 21.6174 130.628 20.334C134.534 11.685 126.61 2.3664 117.403 4.8774C114.669 5.6028 112.214 7.8906 103.565 17.5998L97.0362 25.0212H88.0524C80.1288 25.0212 79.1802 24.9096 79.4592 24.1284C81.8028 17.9346 77.9526 11.3502 71.9262 11.3502C69.75 11.3502 69.2478 11.127 68.2992 9.732C66.402 6.8304 64.3932 5.7702 61.101 5.826C58.59 5.8818 58.032 5.7144 57.5298 4.71C56.6928 3.2034 53.7354 1.1388 51.2802 0.469196C49.0482 -0.200404 48.3228 -0.144604 45.8118 0.580796ZM50.778 8.8392C51.6708 9.732 51.894 10.6248 51.8382 12.5778C51.7266 14.6424 51.894 15.312 52.9542 16.149C55.0746 17.8788 57.6414 17.2092 58.59 14.6424C59.148 13.1916 60.8778 12.8568 61.8822 14.0286C62.217 14.475 62.6634 15.7584 62.9424 16.986C63.333 18.8832 63.6678 19.2738 65.4534 19.8318C67.3506 20.5014 67.7412 20.4456 69.192 19.3854C71.2008 17.8788 72.54 18.3252 72.54 20.4456C72.54 22.6776 70.7544 24.3516 67.9644 24.7422C66.6252 24.9654 60.264 25.0212 53.7354 24.9096L41.9616 24.7422L39.5622 23.0682C36.549 20.9478 35.154 18.7158 36.0468 17.3766C37.0512 15.7584 38.9484 15.8142 40.2318 17.4324C41.6268 19.218 44.1378 19.3854 45.756 17.7672C46.9836 16.5396 47.2626 14.1402 46.2582 13.5264C45.4212 13.0242 45.9792 8.8392 46.9836 8.2254C48.2112 7.4442 49.6062 7.6674 50.778 8.8392ZM122.983 13.4148C124.657 15.7584 123.988 17.5998 119.97 22.0638C118.91 23.2356 115.841 26.5836 113.218 29.4852C107.527 35.7348 106.857 36.8508 107.694 38.4132C109.256 41.259 113.107 40.143 119.133 35.0652C123.653 31.215 127.447 30.8802 129.679 34.0608C132.19 37.5762 130.014 39.7524 120.807 42.7656C116.957 44.049 113.497 45.1092 113.162 45.1092C111.991 45.1092 109.926 47.5086 109.926 48.8478C109.926 49.5732 110.484 50.6892 111.098 51.303C112.158 52.3632 112.716 52.419 115.45 52.14C118.352 51.8052 118.687 51.861 120.416 53.4234C121.365 54.372 122.202 55.5996 122.202 56.2134C122.202 57.7758 120.695 59.115 119.245 58.836C114.948 57.9432 111.991 57.9432 110.707 58.7802C109.424 59.6172 109.368 59.952 109.368 65.1414C109.368 71.67 108.308 75.4644 105.239 79.6494C102.616 83.2206 99.4356 85.4526 95.0832 86.736C92.07 87.6846 89.5032 87.7404 65.1186 87.573C36.7164 87.4056 35.154 87.2382 30.5226 84.5598C21.2598 79.0914 16.9632 69.9402 17.3538 56.4924C17.577 50.187 17.6886 49.629 19.6416 45.6672C22.4316 39.9198 25.5564 36.8508 30.969 34.284C34.4844 32.6658 44.8074 32.2752 73.9908 32.6658C99.603 33.0006 100.273 33.0006 101.333 31.9404C101.891 31.3266 103.509 29.541 104.904 28.0344C118.073 13.2474 119.133 12.1872 120.64 12.1872C121.532 12.1872 122.481 12.6894 122.983 13.4148ZM81.468 101.467V107.605H68.076H54.684V101.467V95.3292H68.076H81.468V101.467Z" fill="black"/>
<path d="M72.5445 40.0897C70.9821 41.6521 71.1495 43.6609 72.8793 45.0559C74.1627 46.0603 75.1671 46.2277 79.9101 46.2277C85.0437 46.2277 85.5459 46.1161 86.7735 44.8327C88.5591 43.1029 88.5591 41.5963 86.7177 40.1455C85.4343 39.1411 84.4299 38.9737 79.4637 38.9737C74.3859 38.9737 73.4931 39.1411 72.5445 40.0897Z" fill="black"/>
<path d="M33.761 42.9915L32.1986 44.2191L32.4776 51.4731C32.7566 57.9459 32.924 59.1177 34.2074 61.6287C36.3278 65.7579 39.899 68.6595 44.6978 70.2219C47.4878 71.0589 49.4408 71.3937 51.059 71.1705C55.0766 70.6125 59.5406 68.6037 62.2748 66.0927C64.6184 64.0281 64.8974 63.4701 64.9532 61.3497C65.009 59.3409 64.73 58.7271 63.5024 57.8343C61.5494 56.3277 59.5964 56.8299 58.0898 59.2293C56.1926 62.2983 51.6728 63.8607 47.432 62.9121C42.1868 61.7403 40.2338 58.1133 40.178 49.7433C40.178 44.2749 40.1222 44.0517 38.7272 42.9357C36.83 41.4291 35.714 41.4849 33.761 42.9915Z" fill="black"/>
<path d="M76.3949 51.8644C75.6137 52.1434 74.6093 53.0362 74.1629 53.8174C73.5491 55.045 73.5491 55.4356 74.2745 56.719C74.9999 58.114 75.5021 58.2814 79.4639 58.5604C86.3273 59.1184 93.1907 58.7278 94.1951 57.7234C95.3111 56.6074 95.3111 53.65 94.0835 52.4782C93.3023 51.697 91.8515 51.5296 85.4903 51.418C81.3053 51.3622 77.1761 51.5296 76.3949 51.8644Z" fill="black"/>
<path d="M73.2142 65.592C71.4844 67.1544 71.2612 68.7168 72.6004 70.4466L73.7722 71.8974L84.988 71.7858L96.2596 71.6184L96.985 70.1118C97.543 68.8842 97.543 68.3262 97.0408 67.3218C95.7016 64.8108 95.0878 64.6992 84.4858 64.6434C75.6136 64.6434 74.2186 64.755 73.2142 65.592Z" fill="black"/>
<path d="M20.0889 108.058C16.6851 108.282 15.0669 109.286 15.0669 111.295C15.0669 113.806 16.7409 114.587 21.7629 114.42C25.8921 114.252 26.3385 114.085 26.8965 112.913C27.7335 111.127 27.0639 108.895 25.5015 108.393C23.9949 107.835 23.8275 107.835 20.0889 108.058Z" fill="black"/>
<path d="M108.426 108.84C107.254 110.346 107.143 111.686 107.98 112.969C108.705 114.141 109.263 114.308 112.165 114.308C115.736 114.308 117.187 113.471 117.187 111.295C117.187 109.175 115.513 108.17 112.053 108.17C110.212 108.17 108.705 108.449 108.426 108.84Z" fill="black"/>
</svg>
