<svg width="108" height="131" viewBox="0 0 108 131" fill="none" xmlns="http://www.w3.org/2000/svg">
<path d="M100.503 1.46477C99.4428 2.24597 98.3826 6.15196 97.6572 11.9552C97.3224 14.243 97.4898 14.7452 98.7174 15.9728C101.228 18.4838 105.692 17.5352 106.92 14.2988C107.311 13.3502 107.087 11.453 106.25 7.82596C104.744 1.29736 103.126 -0.488234 100.503 1.46477Z" fill="black"/>
<path d="M5.69258 5.81735C4.96718 6.82175 4.79978 8.83055 4.79978 15.8614C4.79978 24.5104 4.79978 24.7335 3.57218 25.1799C0.670577 26.2959 -0.557023 29.086 0.614777 31.6528C2.28878 35.0566 6.41798 35.7262 9.37538 33.1036L11.2168 31.4854L11.3842 19.0978C11.5516 8.04935 11.44 6.59855 10.603 5.64995C9.26378 4.19915 6.75278 4.31075 5.69258 5.81735Z" fill="black"/>
<path d="M59.7628 10.3376C54.3502 12.179 50.7232 14.8016 47.3752 19.2656C43.525 24.5108 42.7438 27.9704 42.7438 39.6884C42.7438 49.2302 42.688 49.6208 41.4604 50.7926C38.6146 53.471 34.2622 54.3638 30.8026 52.913C28.2916 51.8528 27.1198 50.0114 27.1198 47.2214C27.1198 45.3242 26.8408 44.5988 25.669 43.706C23.8276 42.2552 23.2696 42.2552 18.9172 43.6502C12.6676 45.6032 9.9892 47.3888 6.3064 52.076C1.1728 58.5488 -0.835996 68.7044 1.1728 78.2462C3.07 87.1742 8.2594 96.3254 14.7322 102.24C18.9172 106.09 26.3944 110.052 32.1418 111.615L35.7688 112.563L35.9362 117.697L36.1036 122.886L27.064 122.998L18.0244 123.165L16.9084 124.672C15.9598 125.955 15.8482 126.513 16.2946 127.741L16.7968 129.303L49.4398 129.415C67.4074 129.526 82.3618 129.359 82.7524 129.136C83.0872 128.913 83.5336 128.076 83.7568 127.239C84.0358 126.067 83.8126 125.397 82.6966 124.337C81.3016 122.942 81.1342 122.886 73.4338 122.886H65.6218L65.0638 121.491C64.45 119.873 62.497 118.98 59.5954 118.98H57.5308L57.6982 115.8L57.9214 112.563L61.0462 111.559C76.447 106.537 86.491 94.484 88.4998 78.6926C88.7788 76.1816 89.0578 67.9232 89.0578 60.3344V46.5518L94.024 46.3286C98.2648 46.1612 99.325 45.8822 101.334 44.543C105.407 41.8646 106.523 36.3404 103.789 32.0996C101.557 28.7516 99.6598 27.803 93.9124 27.4682L89.002 27.1892L87.9976 24.3434C86.8816 20.9954 83.701 16.4756 80.9668 14.411C77.005 11.342 73.0432 10.0586 67.2958 9.83541C63.8362 9.66801 61.2136 9.89121 59.7628 10.3376ZM73.5454 18.9308C76.6702 20.6606 79.795 24.3434 80.7436 27.4124C81.1342 28.7516 81.2458 37.9586 81.1342 54.8102C80.9668 79.5296 80.911 80.3108 79.7392 83.4914C76.726 91.5266 70.309 99.0596 63.9478 102.129C58.2562 104.919 51.2812 106.314 45.2548 105.979C35.713 105.365 30.6352 103.803 23.995 99.3386C16.5178 94.3724 11.719 87.2858 9.208 77.6882C7.0318 69.1508 8.4826 61.7294 13.4488 56.0378C15.7924 53.3036 18.8614 51.4622 19.1962 52.5224C19.9216 54.6428 23.3254 58.0466 26.2828 59.5532C29.1286 61.004 30.133 61.2272 34.039 61.2272C37.3312 61.2272 39.061 60.9482 40.4002 60.2228C41.4604 59.6648 42.409 59.33 42.5764 59.4974C42.7438 59.6648 42.2416 60.8924 41.4604 62.2316C39.2284 65.9702 37.6102 66.5282 28.4032 66.5282C22.321 66.5282 20.4238 66.6956 19.4194 67.421C17.8012 68.537 17.8012 71.327 19.4194 73.0568C20.5354 74.2844 20.9818 74.3402 28.5148 74.3402C40.6234 74.3402 45.199 72.3872 48.6028 65.6912L50.2768 62.4548L50.5558 45.659C50.8348 29.4212 50.8906 28.8074 52.174 26.3522C54.4618 21.944 58.2562 18.7634 62.8318 17.3684C65.566 16.5872 70.5322 17.3126 73.5454 18.9308Z" fill="black"/>
<path d="M67.8021 26.0183C65.6259 27.0785 64.7331 29.1989 65.5701 31.2635C67.0767 34.8347 72.1545 34.8347 73.3821 31.2635C73.9959 29.4779 73.6611 28.3061 71.9313 26.8553C70.3689 25.5161 69.2529 25.2929 67.8021 26.0183Z" fill="black"/>
<path d="M98.4382 58.5519C97.657 59.4447 96.7084 63.4623 95.9272 69.3771C95.5924 71.8881 96.4294 73.5063 98.6056 74.6223C100.893 75.8499 103.795 74.9013 105.023 72.5577C105.804 70.9953 105.804 70.4931 104.688 65.8059C104.018 62.9601 103.181 60.0585 102.846 59.2773C101.954 57.5475 99.6658 57.1569 98.4382 58.5519Z" fill="black"/>
<path d="M89.175 123.786C88.338 124.344 87.9474 125.181 87.9474 126.52C87.9474 129.366 89.1192 130.147 93.1926 130.147C97.0986 130.147 98.7168 129.087 98.7168 126.52C98.7168 124.009 97.0986 122.893 93.5832 122.893C91.6302 122.893 89.9562 123.228 89.175 123.786Z" fill="black"/>
<path d="M1.84245 124.456C0.503248 125.907 0.670648 128.25 2.12145 129.255C3.40485 130.147 8.31525 130.482 10.7704 129.813C11.44 129.645 12.277 128.752 12.6118 127.86C13.1698 126.52 13.1698 126.018 12.3886 124.846C11.5516 123.563 11.161 123.451 7.08765 123.451C3.57225 123.451 2.56785 123.675 1.84245 124.456Z" fill="black"/>
</svg>
