<svg width="134" height="133" viewBox="0 0 134 133" fill="none" xmlns="http://www.w3.org/2000/svg">
<path d="M53.2527 1.53941C52.0251 2.15321 50.1279 3.60401 49.0677 4.83161C47.2263 7.00781 47.0589 7.06361 42.5949 7.39841C32.3835 8.17961 24.8505 15.4336 24.1251 25.1428C23.9019 28.3792 24.0135 28.993 25.0737 30.0532C25.7991 30.7786 26.9709 31.225 28.1985 31.225H30.1515V35.2426C30.1515 38.3116 30.4863 39.9856 31.4907 42.106C32.8299 45.0076 37.2939 49.639 38.8005 49.639C39.2469 49.639 39.6375 49.8622 39.6375 50.0854C39.6375 50.9224 31.3791 56.3908 30.9885 55.777C30.8211 55.498 29.0913 54.103 27.1941 52.7638C23.0649 49.8064 22.9533 49.8064 13.1883 53.6008C6.82713 56.056 5.04153 57.6184 5.04153 60.7432C5.04153 62.3056 7.21773 66.7138 9.89613 70.6198L11.8491 73.5214L10.9563 76.0882C8.61273 83.0632 11.2353 94.1116 16.7037 99.9706C21.1119 104.825 27.7521 107.001 33.3321 105.495C36.3453 104.658 40.6977 101.198 42.7623 98.0176C44.3805 95.395 45.3291 94.837 48.2865 94.837C51.6345 94.837 57.1587 92.6608 60.6183 90.0382C62.1807 88.8106 62.9061 88.699 67.9281 88.699C71.4993 88.699 73.7871 88.4758 74.4009 87.9736C75.1821 87.4156 75.3495 85.9648 75.4611 78.376L75.6285 69.448L77.0235 69.6154C77.8047 69.6712 79.0323 70.3966 79.7577 71.2336C82.1013 73.912 85.6167 76.423 87.0675 76.423C88.6299 76.423 90.9177 74.9722 97.5021 69.8386C102.971 65.5978 104.087 63.6448 103.529 59.404L103.194 56.5024L105.593 55.498C106.932 54.9958 108.327 54.4378 108.718 54.2704C109.053 54.103 109.388 54.382 109.388 54.8842C109.388 55.3864 109.89 56.2792 110.504 56.893C112.959 59.3482 116.474 57.3952 115.916 53.8798C115.693 52.4848 115.86 51.871 116.474 51.6478C117.646 51.2014 117.758 51.2014 117.758 52.0942C117.758 54.4378 121.831 55.5538 123.505 53.6566C124.565 52.4848 124.733 50.476 123.896 49.918C123.059 49.4158 123.226 48.6904 124.23 48.2998C124.788 48.0766 125.514 48.4672 126.239 49.36C128.862 52.708 133.716 49.5274 131.708 45.733C131.317 45.0076 131.484 44.1706 132.377 42.5524C134.832 38.0326 132.042 31.8946 126.909 30.5554C125.012 29.9974 124.454 29.6068 124.342 28.5466C124.23 27.7654 123.561 26.6494 122.724 26.0914C120.994 24.7522 118.65 25.4776 117.646 27.598C117.144 28.714 117.2 29.1604 117.981 30.0532C118.65 30.7786 118.762 31.225 118.316 31.504C117.59 31.9504 117.646 32.0062 116.809 30.0532C115.916 28.0444 113.517 27.4864 111.675 28.8814C109.946 30.1648 109.443 32.2852 110.727 33.0106C111.229 33.2896 111.508 33.736 111.341 34.0708C110.727 34.9636 109.946 34.6288 109.388 33.178C109.109 32.3968 108.216 31.504 107.435 31.1134C104.7 29.8858 101.408 33.7918 103.473 35.8564C104.198 36.526 104.254 37.0282 103.696 38.5906C102.859 41.2132 102.468 41.4922 96.2745 44.0032C93.2055 45.2308 87.1791 47.7418 82.9383 49.5832C78.6417 51.4804 75.0705 52.987 74.9589 52.987C74.8473 52.987 74.7915 52.3732 74.7915 51.592C74.7915 50.755 75.2379 49.9738 76.0749 49.5832C78.8091 48.1324 82.2129 44.8402 83.2173 42.7198C83.9427 41.1016 84.2775 39.0928 84.2775 35.8006V31.225H86.6769C90.8619 31.225 91.8663 28.7698 90.1923 22.4086C87.8487 13.7596 80.7063 8.01221 71.3877 7.39841C67.1469 7.06361 66.9237 7.00781 65.8077 5.22221C63.3525 1.26041 57.5493 -0.469391 53.2527 1.53941ZM42.2043 15.88C40.4745 17.4982 40.3071 19.6186 41.8695 21.181C42.9297 22.2412 43.7109 22.297 57.1587 22.297C69.8253 22.297 71.4435 22.1854 72.4479 21.2926C74.4567 19.6186 74.5125 18.0004 72.6153 16.159L70.9971 14.485H72.3363C74.2335 14.485 77.5257 16.2706 79.3113 18.2236C81.0969 20.2324 82.7709 22.855 82.2129 22.855C81.9339 22.855 82.1571 23.134 82.6035 23.413C83.1615 23.7478 74.5125 23.971 57.6051 23.971H31.7697L32.7183 22.1296C35.0061 17.6656 38.9679 14.485 42.3717 14.485H43.7109L42.2043 15.88ZM76.9119 34.573C77.0793 38.7022 75.7959 41.1574 72.5595 42.7756C70.2159 44.0032 69.4905 44.059 57.0471 44.059C43.0413 44.059 42.3717 43.9474 39.6375 40.99C38.5215 39.8182 38.2425 38.8138 38.0751 35.689L37.8519 31.783H40.4187H42.9855V34.6288C42.9855 36.7492 43.2645 37.6978 43.9899 38.2558C45.1617 39.2044 67.7049 39.3718 70.1043 38.479C71.4993 37.921 71.5551 37.7536 71.3319 34.852C71.0529 31.504 71.2761 31.2808 74.7915 31.3924L76.7445 31.504L76.9119 34.573ZM125.067 37.9768C125.681 38.5906 126.128 39.3718 126.016 39.7066C125.793 40.2646 110.95 46.849 109.89 46.849C109.555 46.849 109.388 45.7888 109.499 44.5054L109.667 42.1618L116.084 39.5392C119.599 38.0884 122.835 36.8608 123.226 36.8608C123.561 36.805 124.398 37.3072 125.067 37.9768ZM67.5375 54.0472V56.2234L59.9487 59.3482C55.7637 61.078 52.0809 62.473 51.8019 62.473C51.0207 62.473 51.8577 60.0736 53.0295 59.125C53.5875 58.6786 54.8151 57.8416 55.8195 57.2836C57.4935 56.3908 57.6051 56.1118 57.3261 54.103L57.0471 51.871H62.2923H67.5375V54.0472ZM92.9265 54.7726C94.5447 55.498 95.9955 57.8416 95.9955 59.7388C95.9955 60.9664 94.0425 63.589 93.0939 63.589C92.8707 63.589 91.5315 64.4818 90.0807 65.542C88.6857 66.6022 87.2907 67.495 87.0117 67.495C85.8957 67.495 86.6211 66.6022 89.0205 65.0956L91.5315 63.4774L90.1365 61.8034C88.4067 59.7388 88.2951 56.7814 89.8575 55.219C91.1967 53.8798 91.0851 53.9356 92.9265 54.7726ZM45.4965 57.5626C44.6037 59.4598 44.1015 61.5244 44.1015 63.3658C44.1015 65.821 43.8783 66.3232 42.4275 67.3834C40.1397 69.0574 40.1955 71.4568 42.6507 76.7578L44.6037 80.887H46.8357C48.6213 80.887 49.2351 81.166 49.7373 82.1146C50.0721 82.84 51.0207 83.956 51.8019 84.6256L53.2527 85.8532L51.6345 86.467C50.7417 86.8018 48.2307 87.304 46.0545 87.583C39.6933 88.42 38.7447 88.9222 36.5127 93.3862C33.7227 98.9104 26.9151 99.8032 22.4511 95.2276C20.4423 93.163 17.9313 86.8018 17.8755 83.7886C17.8755 81.724 17.8197 81.724 19.8843 82.84C22.6743 84.2908 28.1427 83.4538 30.6537 81.2218C32.0487 79.9384 32.2719 80.05 32.9973 82.6168C33.8343 85.4068 35.1177 86.188 37.2381 85.2394C40.1397 83.956 40.1397 83.7328 38.4657 78.1528C36.5685 72.0148 36.4569 71.7916 35.1735 72.1264C34.3923 72.2938 33.9459 71.9032 33.4437 70.6198C33.0531 69.6712 32.1603 68.053 31.3791 67.0486C30.6537 66.0442 30.1515 65.0956 30.2073 65.0398C30.3189 64.9282 32.2161 64.0354 34.3365 63.0868C36.5127 62.0824 39.3585 60.1852 40.7535 58.846C42.7065 57.0046 45.7197 54.8842 46.7241 54.661C46.7799 54.661 46.2219 56.0002 45.4965 57.5626ZM81.4317 59.3482C80.9853 59.7946 76.6329 61.8034 71.7225 63.868C66.8121 65.9326 59.7255 69.0016 56.0427 70.6198C48.6771 73.8562 48.0075 74.0794 48.0075 72.796C48.0075 72.3496 48.2865 71.959 48.6213 71.959C48.9003 71.959 50.5185 71.3452 52.0809 70.6198C53.6991 69.8944 56.8797 68.4994 59.1675 67.495C61.4553 66.4906 64.1337 65.3746 65.0265 64.984C67.7049 63.8122 79.9809 58.7344 80.9295 58.4554C82.1571 58.0648 82.3803 58.4554 81.4317 59.3482ZM24.0135 58.7902C24.0135 58.9018 22.8975 59.5714 21.5025 60.241C20.1075 60.9106 18.9915 61.7476 18.9915 62.1382C18.9915 63.1426 23.0091 69.2248 24.7947 70.7872C27.1941 73.0192 26.5245 76.423 23.7345 76.423C22.1163 76.423 21.4467 75.586 17.3733 68.5552C14.4717 63.5332 13.4673 61.357 14.1369 61.357C14.1927 61.357 16.0341 60.7432 18.1545 59.962C21.8373 58.7344 24.0135 58.288 24.0135 58.7902ZM67.8723 81.2776C67.5375 82.0588 61.3995 82.3378 61.3995 81.5566C61.3995 80.887 58.8327 79.771 57.4377 79.771C56.6565 79.771 56.3775 79.4362 56.4891 78.8224C56.6007 78.2086 58.6653 77.0926 62.2365 75.586L67.8165 73.2982L67.9839 76.9252C68.0955 78.8782 68.0397 80.8312 67.8723 81.2776Z" fill="black"/>
<path d="M9.61742 32.6779C7.27382 34.2961 7.99922 35.9143 13.4676 41.1595C16.2576 43.8379 18.8802 46.2373 19.3266 46.4605C19.773 46.7395 20.7774 46.5721 21.6702 46.1815C24.0138 45.0655 24.0138 42.7219 21.6702 40.3225C18.657 37.0861 12.2958 31.7851 11.5704 31.7851C11.1798 31.7851 10.287 32.1757 9.61742 32.6779Z" fill="black"/>
<path d="M97.5627 76.595C94.6053 78.827 89.6949 82.454 86.5701 84.7418C83.5011 87.0296 80.5437 89.4848 80.0415 90.2102C78.2001 93.056 80.8227 95.846 84.0033 94.3952C87.6861 92.7212 107.16 78.2132 107.216 77.0414C107.384 74.6978 105.765 72.5216 103.812 72.5774C103.366 72.5774 100.576 74.363 97.5627 76.595Z" fill="black"/>
<path d="M90.1414 97.5212C84.3382 101.762 79.372 105.668 79.0372 106.17C78.6466 106.784 78.6466 107.565 79.0372 108.625C79.8184 110.857 82.0504 110.969 85.0078 108.96C93.9916 102.934 104.594 94.9544 105.096 93.8942C105.486 92.9456 105.431 92.3318 104.705 91.2158C102.975 88.5932 101.525 89.207 90.1414 97.5212Z" fill="black"/>
<path d="M61.7909 95.7359C61.5677 95.9591 61.4003 97.3541 61.4003 98.8049V101.483L53.1977 101.651L44.9393 101.818L44.7719 108.068L44.6045 114.373H40.4195C38.1317 114.373 35.1185 114.652 33.7793 114.987C30.2639 115.88 26.5253 119.339 25.2977 122.799L24.2933 125.533H21.6149C18.2669 125.533 17.0393 126.147 16.3139 128.267C15.8675 129.495 15.9233 130.165 16.5371 131.057L17.3741 132.229H60.2285C101.018 132.229 103.139 132.173 103.976 131.225C104.98 130.109 105.203 128.491 104.478 127.375C103.641 126.035 100.795 125.533 94.3224 125.533H87.6264L86.2872 122.799C83.0507 116.438 79.8701 114.429 73.0067 114.373H68.6543L68.5427 104.999L68.3753 95.6801L65.3063 95.5127C63.5765 95.4011 62.0141 95.5127 61.7909 95.7359ZM60.8423 116.884V124.975H56.3783H51.9143V116.884V108.793H56.3783H60.8423V116.884Z" fill="black"/>
<path d="M7.83175 99.4188C6.21355 101.204 6.77155 102.432 11.3471 106.673C14.2487 109.407 15.8111 110.467 16.8713 110.467C18.6569 110.467 19.8287 108.793 19.3265 106.84C18.9359 105.222 11.3471 98.1912 10.0079 98.1912C9.44995 98.1912 8.50135 98.7492 7.83175 99.4188Z" fill="black"/>
<path d="M0.967921 127.097C-0.259679 128.437 -0.203879 130.166 1.02372 131.282C1.80492 132.008 3.14412 132.231 6.32472 132.231C9.95172 132.231 10.6771 132.064 11.1793 131.171C12.0163 129.553 11.8489 128.437 10.6213 127.209C9.05892 125.647 2.30712 125.591 0.967921 127.097Z" fill="black"/>
</svg>
