<svg width="118" height="128" viewBox="0 0 118 128" fill="none" xmlns="http://www.w3.org/2000/svg">
<path d="M51.8867 1.23377C51.3845 1.79177 49.3199 5.64197 47.2553 9.77117C45.1907 13.9004 43.4051 17.4158 43.2935 17.5274C42.8471 18.0296 30.6269 15.1838 28.8971 14.1794C23.3729 10.943 15.7841 13.1192 12.8267 18.8666C10.3715 23.7212 11.7665 30.9194 15.9515 34.8254L17.3465 36.1646L15.8399 38.7314C15.0587 40.1264 13.4405 42.8048 12.2687 44.5904C11.0969 46.4318 10.1483 48.329 10.1483 48.8312C10.1483 49.3892 11.1527 50.7284 12.3803 51.8444C14.8913 54.1322 14.9471 54.188 13.7753 55.304C13.3289 55.8062 12.9383 56.4758 12.9383 56.8664C12.9383 57.6476 19.5785 63.2834 25.3817 67.4126C26.3861 68.0822 26.2745 68.3054 23.8751 70.928C16.7327 78.5168 11.0969 90.5138 10.2599 99.7208C10.1483 101.227 9.81351 102.399 9.53451 102.399C8.69751 102.399 5.07051 105.859 4.23351 107.533C2.78271 110.379 2.22471 115.289 3.11751 118.135C3.84291 120.59 3.84291 120.646 2.28051 121.539C0.215911 122.655 -0.342089 124.942 0.941311 126.393C1.94571 127.509 3.06171 127.509 59.0291 127.509C114.885 127.509 116.168 127.509 116.726 126.449C118.233 123.547 116.168 120.813 112.374 120.813C110.086 120.813 110.086 120.757 110.588 119.362C111.425 117.242 111.37 112.387 110.588 109.876C109.751 107.31 106.571 103.18 105.008 102.678C104.171 102.399 103.892 101.841 103.892 100.502C103.892 97.7678 101.27 89.2304 98.8703 84.2084C96.6383 79.6328 91.3373 72.044 88.6031 69.533C87.8219 68.7518 87.1523 67.9706 87.1523 67.8032C87.1523 67.58 88.6031 66.464 90.3887 65.2922C95.9129 61.6094 99.9863 58.2056 99.9863 57.2012C99.9863 56.6432 99.5957 55.9178 99.1493 55.5272C97.8659 54.467 98.1449 53.6858 100.823 51.7328C102.218 50.7284 103.334 49.445 103.334 48.887C103.334 48.329 101.605 45.3158 99.4283 42.1352L95.5781 36.3878L98.0891 33.5978C100.935 30.4172 102.553 25.9532 101.939 22.7168C100.377 14.4584 92.5649 10.3292 85.1435 13.9004C83.6369 14.6258 80.9027 15.407 79.0613 15.5744C77.2199 15.7418 74.4857 16.1324 72.9233 16.4672L70.1333 16.9694L67.5665 14.0678C66.1157 12.4496 62.9909 8.76677 60.5357 5.86517C56.9645 1.56857 55.8485 0.508374 54.4535 0.396774C53.3933 0.285174 52.4447 0.564174 51.8867 1.23377ZM58.8617 15.2954C60.6473 17.7506 62.1539 20.0942 62.3213 20.4848C62.5445 21.0428 61.3169 21.2102 56.4623 21.266C53.0585 21.266 50.3801 21.0986 50.4359 20.8754C51.3287 18.6992 55.1231 10.943 55.4021 10.8872C55.5695 10.8872 57.1319 12.896 58.8617 15.2954ZM37.9367 24.3908C39.4991 24.7814 40.8383 25.2278 40.8383 25.3952C40.8383 25.5626 40.0013 26.1764 38.9411 26.7344C36.4301 28.0736 32.2451 32.3144 30.5711 35.1602C28.3391 38.8988 27.2789 43.586 26.9441 51.2306L26.6093 58.373L24.7121 56.7548C22.9265 55.304 22.8707 55.1366 23.8193 54.2438C25.0469 52.9604 24.6005 51.956 21.9221 50.1146C20.6945 49.2218 19.6901 48.2732 19.6343 47.8826C19.6343 47.1572 21.7547 43.4186 24.9353 38.6756L26.9999 35.495L25.8281 33.8768L24.6563 32.2028L28.7297 27.683C31.8545 24.1676 32.9705 23.219 33.8633 23.4422C34.4771 23.6096 36.3185 24.056 37.9367 24.3908ZM82.5209 25.2278C83.5253 26.3996 85.3109 28.4642 86.5385 29.8034L88.7705 32.2586L87.7103 33.6536C86.5385 35.1044 86.2595 36.8342 87.0965 37.3364C88.1567 38.006 93.8483 46.934 93.8483 47.9384C93.8483 48.05 92.7323 48.8312 91.3931 49.6124C88.4915 51.2864 87.9335 52.4024 89.1053 54.188C90.2213 55.862 90.2213 55.8062 88.1567 57.0338L86.3153 58.094L86.2595 51.677C86.2595 44.3672 85.5341 40.4612 83.4695 36.332C81.8513 33.0398 77.8895 28.799 74.4857 26.6228C73.1465 25.7858 72.0863 24.9488 72.0863 24.7814C72.0863 24.3908 77.0525 23.3306 79.3403 23.219C80.3447 23.1632 81.2933 23.777 82.5209 25.2278ZM62.0981 29.357C68.0687 30.6404 73.9835 35.2718 76.6061 40.7402C78.2243 44.0882 78.2243 44.144 78.2243 54.8576C78.2243 65.1806 78.1685 65.7944 76.8293 68.5286C75.2669 71.9324 71.5841 75.8384 68.5151 77.4008C66.5621 78.4052 61.7633 80.0792 60.8147 80.0792C60.5357 80.0792 60.3683 78.2378 60.3683 76.0058V71.9324L62.3213 72.1556C63.8837 72.323 64.5533 72.0998 65.9483 70.7048C68.1245 68.5286 68.1803 66.0734 66.1715 64.0646L64.7765 62.6696L63.6605 63.8414C62.5445 65.069 61.4843 64.9574 61.4843 63.674C61.4843 63.2834 62.0981 62.4464 62.8793 61.7768C64.3859 60.4376 64.7765 57.3686 63.6047 56.1968C63.1583 55.7504 60.8147 55.5272 56.6297 55.5272C50.9939 55.5272 50.3243 55.6388 49.7663 56.5874C48.8177 58.4288 49.1525 60.047 50.8823 61.6652C52.9469 63.5624 53.0027 64.4552 51.1613 64.4552C50.3801 64.4552 49.7663 64.1762 49.7663 63.8972C49.7663 62.9486 48.3155 63.2834 47.2553 64.4552C45.5813 66.2966 45.9161 68.8076 48.0923 70.7606C49.5989 72.0998 50.2685 72.323 51.7751 72.0998L53.6723 71.765V76.0058V80.1908L52.1657 79.856C42.9029 77.6798 39.2201 74.7224 35.8163 66.8546C34.7003 64.232 34.6445 63.2834 34.8119 54.2996C34.9793 45.0368 35.0351 44.5346 36.5975 41.1308C39.3317 35.1602 45.0791 30.8078 52.2773 29.1338C54.3977 28.6316 59.1965 28.7432 62.0981 29.357ZM34.5329 79.019C40.2245 84.9896 47.3669 87.8912 56.5181 87.8912C66.5621 87.8912 77.0525 83.1482 81.2933 76.7312C81.9071 75.8384 82.5767 75.0572 82.7999 75.0572C83.5811 75.0572 89.1053 82.1996 90.8351 85.436C92.9555 89.342 95.2433 95.6474 95.8013 98.8838C96.1361 101.116 96.0803 101.227 94.5737 101.618C93.7367 101.785 91.9511 102.567 90.6677 103.292L88.3241 104.687L87.9893 103.404C85.1435 90.3464 84.1949 88.2818 81.1817 88.0028C79.7867 87.8354 79.2287 88.1144 78.5033 89.2304C77.9453 90.0116 77.6663 91.0718 77.8895 91.5182C78.0569 91.9646 78.1127 92.3552 78.0569 92.3552C78.0011 92.3552 76.9409 91.9646 75.7133 91.5182C72.9791 90.5696 68.2361 90.458 65.2229 91.3508C63.9953 91.7414 61.7075 93.1922 60.0893 94.643L57.2435 97.3214L55.1231 95.1452C51.9983 91.9088 48.5387 90.458 44.1863 90.458C42.1217 90.5138 39.6665 90.9044 38.4947 91.4066L36.3743 92.2994V90.6254C36.3743 89.3978 36.0395 88.8398 34.9793 88.3376C32.7473 87.3332 30.7943 88.3376 29.3435 91.2392C28.0043 93.8618 26.2745 100.614 26.2187 103.515L26.1629 105.133L24.6563 103.85C23.8193 103.18 21.9779 102.232 20.5271 101.841C17.5697 101.004 17.4581 100.614 18.7973 95.4242C20.1365 90.2906 23.5961 83.5388 27.1673 79.0748C28.9529 76.8986 30.4595 75.0572 30.5153 75.0572C30.6269 75.0572 32.4125 76.8428 34.5329 79.019ZM49.1525 100.111C52.0541 102.232 52.8353 104.631 53.0027 112.834L53.2259 120.255H43.4051H33.5843V113.95C33.5843 106.807 34.1423 104.296 36.1511 101.841C37.9925 99.7208 39.3875 98.9396 42.2333 98.4932C44.9117 98.1026 46.9763 98.549 49.1525 100.111ZM74.0393 98.9954C76.6619 100.223 79.0055 102.567 79.8425 104.799C80.1773 105.691 80.4563 109.486 80.4563 113.336V120.255L71.1377 120.144L61.7633 119.976L61.5959 113.671C61.4285 106.528 61.9865 103.794 64.1069 101.227C66.8411 97.991 70.1891 97.2098 74.0393 98.9954ZM20.7503 110.323C22.9823 111.829 25.1585 115.903 25.2143 118.414V120.255H18.9647C12.7709 120.199 12.6593 120.199 11.5433 118.693C10.8179 117.744 10.4273 116.293 10.4273 114.787C10.4273 112.722 10.7063 112.108 12.2687 110.713C14.6123 108.649 18.0161 108.481 20.7503 110.323ZM102.163 111.048C103.111 112.164 103.892 113.671 103.892 114.452C103.892 115.959 102.442 119.195 101.437 119.809C101.102 120.032 98.2007 120.255 95.0201 120.255H89.2169L89.5517 117.521C90.2213 112.053 93.0671 109.095 97.8101 109.095C100.098 109.095 100.656 109.318 102.163 111.048Z" fill="black"/>
<path d="M66.7894 47.2717C65.2828 48.1087 64.8364 48.8341 64.8364 50.5639C64.8364 52.3495 66.9568 54.4141 68.854 54.4141C70.4722 54.4141 72.6484 52.1263 72.6484 50.5081C72.6484 47.9971 68.9656 45.9883 66.7894 47.2717Z" fill="black"/>
<path d="M107.526 69.7604C106.745 70.4858 106.131 71.4344 106.131 71.825C106.131 73.7222 106.968 75.173 108.419 75.9542C112.715 78.1304 116.789 72.4946 113.05 69.5372C111.097 67.9748 109.2 68.0864 107.526 69.7604Z" fill="black"/>
</svg>
