<svg width="114" height="120" viewBox="0 0 114 120" fill="none" xmlns="http://www.w3.org/2000/svg">
<path d="M40.714 1.67256C36.25 3.45816 34.297 6.47136 34.297 11.4376C34.297 13.8928 34.6318 15.8458 35.3014 17.1292C36.6406 19.8634 41.3278 24.5506 44.062 25.834C45.2896 26.392 46.294 27.0616 46.294 27.2848C46.294 27.5638 42.8902 27.7312 38.7052 27.7312H31.1164L29.4982 29.3494C28.3264 30.5212 27.88 31.5256 27.88 32.8648C27.88 35.1526 29.7214 39.226 31.6186 41.2348C32.7346 42.4066 32.902 42.853 32.2882 43.0204C31.8418 43.132 30.5026 43.5784 29.275 43.969C28.0474 44.3038 25.4248 45.6988 23.3602 47.038C15.9388 51.9484 11.1958 58.6444 9.91242 66.1774C9.29862 69.8044 9.35442 70.3066 10.6936 74.4358L12.2002 78.7882L10.9726 79.6252C7.51302 81.9688 4.83462 85.1494 2.88162 88.9996C0.928617 92.9614 0.817017 93.5752 0.817017 98.3182C0.872817 102.726 1.04022 103.731 2.43522 106.353C5.72742 112.659 11.5306 117.179 18.394 118.629C20.626 119.132 31.5628 119.299 59.128 119.132L96.793 118.964L101.034 116.9C108.065 113.44 112.138 108.139 113.366 100.718C113.924 97.7602 113.868 96.4768 113.087 93.4078C112.529 91.3432 111.636 88.888 111.022 87.8836C109.404 85.2052 105.107 80.9644 102.931 79.96L101.034 79.0114L102.094 77.1142C103.768 74.1568 104.438 69.1348 103.712 65.6194C101.648 55.7986 91.3804 45.643 81.0016 43.2994C78.1 42.574 78.0442 42.574 78.4906 40.9C79.216 37.9984 78.937 29.3494 78.0442 26.8942C76.2028 21.928 73.8592 18.4126 69.7858 14.3392C63.034 7.69896 54.2734 2.45376 47.5216 1.00296C43.8388 0.221757 44.341 0.165957 40.714 1.67256ZM42.8902 53.6782C44.5642 54.5152 46.294 57.5284 46.294 59.5372C46.294 62.7178 42.946 66.2332 39.877 66.2332C36.9196 66.2332 33.46 62.662 33.46 59.593C33.5158 54.5152 38.482 51.3904 42.8902 53.6782ZM76.9282 53.6224C80.053 55.2406 81.448 59.7604 79.774 62.8852C78.937 64.3918 75.9796 66.2332 74.3056 66.2332C72.241 66.2332 69.5068 64.6708 68.4466 62.941C65.0986 57.2494 71.125 50.665 76.9282 53.6224ZM74.6404 78.4534C72.9106 80.6296 68.893 83.308 65.824 84.3682C62.197 85.6516 55.3894 86.0422 51.2044 85.261C46.9078 84.3682 41.7742 81.7456 39.598 79.2346C38.6494 78.1744 37.924 77.17 37.924 76.9468C37.924 76.7236 46.4614 76.612 56.9518 76.7236L75.9238 76.891L74.6404 78.4534ZM102.987 88.4416C104.103 89.167 105.442 94.0774 105.442 97.4812C105.442 101.722 103.935 105.014 100.643 108.083C97.7974 110.706 95.7328 111.654 93.8356 111.152C92.8312 110.929 92.5522 110.538 92.7196 109.367C92.8312 108.585 93.2776 107.748 93.724 107.525C94.1704 107.302 95.2306 106.8 96.0676 106.409C96.9046 106.019 98.2996 104.679 99.1366 103.396C100.476 101.443 100.643 100.55 100.643 97.2022C100.587 95.026 100.42 92.515 100.197 91.5664C99.6388 89.2228 101.313 87.3256 102.987 88.4416Z" fill="black"/>
<path d="M93.2831 7.81099C92.1671 8.98279 92.0555 9.70819 92.0555 15.623C92.0555 21.6494 91.9439 22.1516 90.9953 22.1516C89.5445 22.1516 87.2009 24.1046 86.8103 25.7786C86.3639 27.4526 87.6473 30.2426 89.2097 31.0796C89.8235 31.3586 91.3859 31.6376 92.6693 31.6376C94.6223 31.6376 95.2919 31.3028 96.8543 29.6288L98.7515 27.6758V18.0224C98.7515 9.37339 98.6399 8.25739 97.7471 7.47619C96.2963 6.19279 94.6781 6.30439 93.2831 7.81099Z" fill="black"/>
</svg>
