<svg width="113" height="128" viewBox="0 0 113 128" fill="none" xmlns="http://www.w3.org/2000/svg">
<path d="M70.2781 0.950322C69.6085 1.22932 67.7113 3.79612 65.8699 6.92092C53.3149 28.3481 45.6145 41.4053 39.6997 51.1703C29.0419 68.8031 28.2607 70.6445 30.3811 72.5417C31.2739 73.3229 32.7805 73.4903 39.8671 73.4903C44.5543 73.4903 48.3487 73.6577 48.3487 73.8809C48.3487 74.1599 47.8465 76.4477 47.2327 79.0703C45.2797 87.5519 43.2151 96.5357 42.2107 101.39C41.3737 105.408 40.5367 109.147 37.3561 122.985C36.9655 124.603 39.4207 127.058 41.3737 127.058C43.1593 127.058 44.4985 125.663 48.4603 119.414C50.0785 116.903 53.0917 112.216 55.1005 109.091C57.1093 105.91 61.7965 98.5445 65.4793 92.7413C69.1621 86.8823 74.9653 77.6753 78.4807 72.2069C85.5115 61.0469 86.2927 59.4287 85.3999 57.9779C84.1723 56.0249 82.3309 55.6343 73.5145 55.6343H64.9771L65.2561 54.3509C65.4235 53.6813 65.7583 52.1189 65.9257 50.8913C66.3163 48.3803 67.3207 43.5257 69.3853 33.5933C70.8919 26.2835 71.0593 25.3907 71.4499 23.2703C71.6173 22.4891 72.5101 18.3041 73.4587 13.9517C75.4675 4.46572 75.5233 3.01492 73.9051 1.50832C72.5659 0.280722 72.1195 0.224922 70.2781 0.950322ZM62.0755 31.1939C61.6291 33.0911 60.7363 37.2203 60.1225 40.2893C59.5087 43.3583 58.4485 48.2687 57.7789 51.1703C57.1093 54.0719 56.4397 57.5873 56.3281 58.9265C55.8817 62.6651 56.4955 62.8883 66.3163 62.8883C71.9521 62.8883 74.5747 63.1115 74.5747 63.5021C74.5747 63.8369 74.0725 64.8413 73.4587 65.6783C72.8449 66.5711 67.5439 74.8853 61.7407 84.2039C49.4647 103.901 49.9111 103.176 50.2459 101.669C50.4133 101.056 50.6923 99.6605 50.8597 98.6003C51.0271 97.5401 51.4735 95.5313 51.7525 94.1363C52.0873 92.7413 52.4221 91.2347 52.5337 90.7883C52.6453 90.3419 53.0917 88.3331 53.5939 86.3243C57.6673 69.4169 57.6673 69.4169 55.7143 67.1849C54.9889 66.3479 53.8171 66.2363 47.4001 66.2363C43.3267 66.2363 39.9787 66.1247 39.9787 66.0689C39.9787 65.9573 43.8289 59.4287 48.5161 51.6167C53.1475 43.8047 58.2811 35.1557 59.7877 32.3657C61.3501 29.5757 62.6335 27.3437 62.7451 27.4553C62.8567 27.5669 62.5777 29.2409 62.0755 31.1939Z" fill="black"/>
<path d="M19.4993 5.47047C18.1043 5.97267 17.0999 7.59087 17.0999 9.32067C17.0999 10.6599 26.6417 21.3735 28.5947 22.2663C31.4963 23.6055 34.7885 20.2017 33.3377 17.4675C32.2217 15.4587 22.8473 5.58207 21.6755 5.30307C21.1175 5.13567 20.1689 5.24727 19.4993 5.47047Z" fill="black"/>
<path d="M86.6864 7.7583C81.8318 13.8405 79.0418 17.9697 79.0418 19.0857C79.0418 20.8155 81.0506 22.7127 82.892 22.7127C84.1754 22.7127 85.124 21.9315 88.0256 18.4161C94.1636 10.9947 94.8332 9.9903 94.4426 8.4837C93.9404 6.4749 92.5454 5.4147 90.4808 5.4147C88.9184 5.4147 88.2488 5.8611 86.6864 7.7583Z" fill="black"/>
<path d="M5.60417 23.9415C3.70697 24.8343 2.92577 27.0663 3.98597 28.6287C4.99037 30.1911 7.22237 31.3629 14.1416 34.0971C20.1122 36.3849 21.4514 36.5523 23.1254 34.9899C26.0828 32.2557 24.353 30.3027 15.3134 26.3967C7.83617 23.1045 7.50137 22.9929 5.60417 23.9415Z" fill="black"/>
<path d="M97.7356 26.6757C94.0528 28.2381 90.5932 29.9121 90.091 30.4143C88.696 31.5861 88.8634 33.4275 90.37 34.8783C92.044 36.4407 93.8854 36.4407 97.5682 34.8225C99.1864 34.0971 101.809 33.0369 103.316 32.4789C104.878 31.9209 106.664 30.9723 107.389 30.3585C109.733 28.2381 108.449 23.8299 105.492 23.8299C104.934 23.8299 101.418 25.1133 97.7356 26.6757Z" fill="black"/>
<path d="M1.58646 45.0352C0.0798562 46.4302 -0.0317438 48.997 1.41906 50.2804C2.25606 51.0616 3.53946 51.1732 9.90066 51.0616L17.3779 50.8942L18.1033 49.3318C18.8845 47.6578 18.6055 46.0954 17.3221 44.7562C16.6525 44.0866 14.9785 43.9192 9.62166 43.9192C3.53946 43.9192 2.64666 44.0308 1.58646 45.0352Z" fill="black"/>
<path d="M96.0619 45.3142C94.3879 46.9324 94.3321 47.8252 95.8387 49.7224C96.9547 51.1174 97.1221 51.1732 103.483 51.1732C107.054 51.1732 110.291 50.95 110.626 50.7268C111.686 50.0014 112.523 47.9368 112.132 46.8766C111.184 44.1982 110.458 43.9192 103.762 43.9192C97.7359 43.9192 97.3453 43.975 96.0619 45.3142Z" fill="black"/>
<path d="M1.14009 69.3097C-0.478109 70.9279 -0.310709 72.5461 1.58649 74.1643C2.53509 75.0013 3.81849 75.1687 8.95209 75.1687C16.2061 75.1687 17.6569 74.5549 17.6569 71.5975C17.6569 68.4169 16.4851 67.9147 9.06369 67.9147C2.81409 67.9147 2.47929 67.9705 1.14009 69.3097Z" fill="black"/>
<path d="M95.5597 69.1423C94.3321 70.8721 94.4437 72.7135 95.8945 74.0527C96.9547 75.0571 97.8475 75.1687 103.372 75.1687C108.784 75.1687 109.789 75.0013 111.072 73.9969C112.802 72.6019 112.969 70.5931 111.407 69.0307C110.403 68.0263 109.566 67.9147 103.372 67.9147C96.7873 67.9147 96.3409 67.9705 95.5597 69.1423Z" fill="black"/>
<path d="M15.983 87.7807C14.9228 88.2829 12.0212 89.3989 9.62185 90.2917C4.59985 92.1331 3.14905 93.1933 3.14905 95.0905C3.14905 96.5413 5.38105 99.1639 6.60865 99.1639C6.99925 99.1639 10.5704 97.9363 14.588 96.4297C23.5718 92.9701 25.4132 91.0729 22.679 88.1155C21.284 86.6647 18.8288 86.5531 15.983 87.7807Z" fill="black"/>
<path d="M88.8632 87.7807C87.4682 89.1757 87.1334 91.2403 88.1936 92.4121C88.9748 93.2491 99.5768 97.9921 103.762 99.3871C104.989 99.7777 107.779 98.4385 108.282 97.2109C109.23 94.7557 107.054 92.4121 102.478 91.0729C101.697 90.8497 99.1304 89.8453 96.731 88.7851C91.9322 86.6647 90.1466 86.4415 88.8632 87.7807Z" fill="black"/>
<path d="M24.7445 105.414C20.6711 109.823 17.0999 114.733 17.0999 115.961C17.0999 117.411 19.4993 119.811 20.9501 119.811C21.5639 119.811 22.6799 119.253 23.4053 118.527C25.3025 116.798 31.4405 109.488 32.1659 108.037C33.3935 105.805 30.9941 102.513 28.0925 102.513C27.7577 102.513 26.2511 103.852 24.7445 105.414Z" fill="black"/>
<path d="M79.0976 104.522C76.9772 107.256 77.4794 108.372 83.3942 114.343C87.914 118.862 89.1416 119.811 90.5366 119.811C91.4852 119.811 92.657 119.365 93.1592 118.807C95.0006 116.798 94.331 115.235 89.588 109.99C87.1328 107.256 84.6218 104.578 83.9522 104.02C82.334 102.625 80.4368 102.848 79.0976 104.522Z" fill="black"/>
</svg>
